<svg width="366" height="213" viewBox="0 0 366 213" fill="none" xmlns="http://www.w3.org/2000/svg">
<path d="M250.252 191.057V196.29H306.525C306.525 196.29 306.525 196.29 306.525 196.199C306.525 186.375 298.29 178.387 288.042 178.387C285.571 178.387 283.284 178.846 281.179 179.673C281.271 179.122 281.271 178.571 281.271 178.02C281.271 168.196 273.036 160.209 262.788 160.209C252.54 160.209 244.305 168.196 244.305 178.02C244.305 183.162 246.592 187.752 250.252 191.057Z" fill="#85AF05"/>
<path d="M274.957 153.323H270.931V195.005H274.957V153.323Z" fill="#53241B"/>
<path d="M271.938 154.15C283.65 154.15 293.166 144.601 293.166 132.85V87.9543C293.166 76.2026 283.65 66.6543 271.938 66.6543C260.226 66.6543 250.71 76.2026 250.71 87.9543V132.85C250.71 144.601 260.226 154.15 271.938 154.15Z" fill="#ACC700"/>
<path d="M271.938 66.6543C281.728 66.6543 290.055 73.3565 292.434 82.4457C290.604 77.5797 285.937 74.0909 280.356 74.0909C273.219 74.0909 267.546 79.875 267.454 86.9444V124.311C267.454 131.472 261.69 137.256 254.553 137.256C253.363 137.256 252.174 137.073 251.076 136.797C250.801 135.512 250.71 134.227 250.71 132.941V87.9543C250.71 76.2026 260.226 66.6543 271.938 66.6543Z" fill="#C0D219"/>
<path d="M279.167 196.29C278.343 189.956 272.945 185.09 266.448 185.09C265.716 185.09 264.984 185.181 264.252 185.273C262.056 180.499 257.207 177.102 251.625 177.102C244.488 177.102 238.724 182.427 237.809 189.313H256.932C255.194 191.241 254.096 193.628 253.73 196.29H279.167Z" fill="#ACC700"/>
<path d="M260.134 133.768L216.397 91.9941L172.569 133.768V196.291H260.134V133.768Z" fill="#FDCC2E"/>
<path d="M260.134 137.348L260.043 142.214L216.306 100.624L182.725 131.931L181.902 125.688L216.397 94.5645L260.134 137.348Z" fill="#FFB70A"/>
<path d="M186.935 120.088L181.262 125.321L180.987 125.505L172.478 133.768V196.29H186.935V120.088Z" fill="#FFB70A"/>
<path d="M183.768 196.293L248.733 196.293L248.733 139.646L183.768 139.646L183.768 196.293Z" fill="#53241B"/>
<path d="M183.768 166.586L248.733 166.586L248.733 139.043L183.768 139.043L183.768 166.586Z" fill="#00A8E8"/>
<path d="M183.768 145.767L248.733 145.767L248.733 139.065L183.768 139.065L183.768 145.767Z" fill="#0085B8"/>
<path d="M218.227 163.882H214.293C213.835 163.882 213.469 163.514 213.469 163.055C213.469 162.596 213.835 162.229 214.293 162.229H218.227C218.685 162.229 219.051 162.596 219.051 163.055C219.051 163.514 218.685 163.882 218.227 163.882Z" fill="#53241B"/>
<path d="M247.05 196.29V196.198V178.112V141.296H186.934V178.112V196.198V196.29H183.549V137.899H250.435V196.29H247.05Z" fill="white"/>
<path d="M228.292 131.84H233.05C233.416 131.84 233.691 131.564 233.691 131.197V129.82C233.691 129.453 233.416 129.177 233.05 129.177H228.292C227.926 129.177 227.652 129.453 227.652 129.82V131.197C227.56 131.473 227.926 131.84 228.292 131.84Z" fill="#FFB70A"/>
<path d="M224.175 127.8H228.933C229.299 127.8 229.573 127.525 229.573 127.158V125.78C229.573 125.413 229.299 125.138 228.933 125.138H224.175C223.809 125.138 223.534 125.413 223.534 125.78V127.158C223.534 127.525 223.809 127.8 224.175 127.8Z" fill="#FFB70A"/>
<path d="M220.881 131.84H225.09C225.547 131.84 225.822 131.473 225.822 131.105V129.82C225.822 129.361 225.456 129.085 225.09 129.085H220.881C220.423 129.085 220.149 129.453 220.149 129.82V131.105C220.149 131.473 220.515 131.84 220.881 131.84Z" fill="#FFB70A"/>
<path d="M260.134 137.348L216.306 95.5746L172.477 137.348L168.909 133.676L213.744 90.8004C215.116 89.4233 217.404 89.4233 218.776 90.8004L263.611 133.676L260.134 137.348Z" fill="#004166"/>
<path d="M232.136 185.641L233.234 183.713L231.221 181.417C230.946 181.142 231.038 180.775 231.312 180.407L234.423 177.286L232.959 175.817L229.848 179.03C228.842 180.132 228.842 181.693 229.757 182.794L232.136 185.641Z" fill="#0093D7"/>
<path d="M231.038 198.677H228.567L227.927 190.506L233.691 184.906L235.796 186.834L230.855 191.241L231.038 198.677Z" fill="#84D0F0"/>
<path d="M237.992 187.66H233.783C233.142 187.66 232.593 187.11 232.593 186.467V185.641H239.181V186.467C239.181 187.201 238.632 187.66 237.992 187.66Z" fill="#84D0F0"/>
<path d="M238.907 203.727H236.528L235.979 186.1H239.181L238.907 203.727Z" fill="#84D0F0"/>
<path d="M238.998 185.916H232.684C232.318 185.916 232.044 185.64 232.044 185.273V177.561C232.044 176.092 233.233 174.898 234.697 174.898H237.076C238.54 174.898 239.73 176.092 239.73 177.561V185.273C239.638 185.64 239.364 185.916 238.998 185.916Z" fill="#00A8E8"/>
<path d="M237.351 175.082L235.704 176L234.514 175.082V173.154H237.351V175.082Z" fill="#FFB70A"/>
<path d="M235.155 174.439C233.142 174.439 231.495 172.787 231.495 170.767V168.38C231.495 166.36 233.142 164.708 235.155 164.708C237.168 164.708 238.815 166.36 238.815 168.38V170.767C238.723 172.879 237.076 174.439 235.155 174.439Z" fill="#FFB70A"/>
<path d="M236.07 170.951C236.07 171.685 235.429 172.328 234.697 172.328C233.965 172.328 233.325 171.685 233.325 170.951H236.07Z" fill="white"/>
<path d="M236.07 167.646H232.227C231.22 167.646 230.397 166.819 230.397 165.809C230.397 164.799 231.22 163.973 232.227 163.973H236.619C237.168 163.973 237.625 164.432 237.625 164.983V166.177C237.717 166.911 236.985 167.646 236.07 167.646Z" fill="white"/>
<path d="M238.723 170.492C238.174 170.492 237.625 170.032 237.625 169.39V165.167H237.808C238.266 165.167 238.632 165.534 238.632 165.993V170.492H238.723Z" fill="white"/>
<path d="M238.907 203.635H235.247C235.064 203.635 234.881 203.819 234.881 204.002C234.881 204.186 235.064 204.37 235.247 204.37H238.907V203.635Z" fill="#53241B"/>
<path d="M230.946 198.585H227.103C226.92 198.585 226.737 198.769 226.737 198.953C226.737 199.136 226.92 199.32 227.103 199.32H230.946V198.585Z" fill="#53241B"/>
<path d="M239.089 186.467C238.723 186.467 238.449 186.191 238.449 185.824V184.63C238.449 184.263 238.723 183.988 239.089 183.988C239.455 183.988 239.73 184.263 239.73 184.63V185.824C239.821 186.099 239.455 186.467 239.089 186.467Z" fill="#FFB70A"/>
<path d="M240.279 184.997L238.723 183.62L240.736 181.325C241.011 181.05 240.919 180.682 240.645 180.315L237.534 177.194L238.998 175.725L242.109 178.938C243.115 180.04 243.115 181.6 242.2 182.702L240.279 184.997Z" fill="#00A8E8"/>
<path d="M228.384 204.553C229.799 204.553 230.946 203.403 230.946 201.983C230.946 200.563 229.799 199.412 228.384 199.412C226.969 199.412 225.822 200.563 225.822 201.983C225.822 203.403 226.969 204.553 228.384 204.553Z" fill="#FDCC2E"/>
<path d="M208.345 186.742C208.345 186.742 207.979 186.742 207.43 186.65C207.339 186.65 207.339 186.65 207.247 186.65C207.156 186.65 207.156 186.742 206.973 186.834C206.698 187.109 206.424 187.476 206.058 187.752C204.868 188.945 203.679 190.231 203.679 190.231L202.764 189.404C202.764 189.404 203.862 188.027 204.868 186.65C205.143 186.283 205.417 186.007 205.692 185.64C205.875 185.457 206.149 185.181 206.332 185.089C206.607 184.906 206.881 184.814 207.064 184.814C207.156 184.814 207.339 184.814 207.43 184.814C207.522 184.814 207.613 184.814 207.705 184.814C207.796 184.814 207.979 184.814 208.071 184.814C208.254 184.814 208.345 184.814 208.345 184.814V186.742Z" fill="#F8B000"/>
<path d="M217.953 188.303C217.953 188.303 218.136 188.578 218.319 189.037C218.41 189.129 218.319 189.129 218.41 189.129C218.41 189.129 218.41 189.221 218.502 189.221H218.776C218.959 189.221 219.142 189.221 219.234 189.221C220.606 189.313 221.887 189.404 221.887 189.404V190.598C221.887 190.598 220.515 190.69 219.234 190.782C219.051 190.782 218.868 190.782 218.776 190.782H218.502C218.319 190.782 218.227 190.782 218.044 190.782C217.77 190.69 217.495 190.598 217.312 190.414C217.129 190.231 216.946 190.047 216.855 189.955C216.58 189.588 216.306 189.313 216.306 189.313L217.953 188.303Z" fill="#F8B000"/>
<path d="M208.071 186.926H211.548L211.64 184.722H208.071V186.926Z" fill="#ACC700"/>
<path d="M209.169 195.407L213.744 195.407L213.744 192.286L209.169 192.286L209.169 195.407Z" fill="#694039"/>
<path d="M214.751 193.903L217.953 197.117C218.136 197.3 218.319 197.576 218.319 197.851L219.783 204.002L218.411 204.37L216.032 198.586L210.267 194.087L214.751 193.903Z" fill="#694039"/>
<path d="M212.097 193.903L209.718 199.32C209.444 200.055 208.712 200.514 207.98 200.605L203.13 201.248L202.947 199.779L207.248 198.769L208.529 193.72L212.097 193.903Z" fill="#694039"/>
<path d="M214.567 182.335L214.201 188.395H211.365L211.914 182.06C212.737 182.152 213.744 182.244 214.567 182.335Z" fill="#FFB70A"/>
<path d="M217.404 178.02C217.313 177.928 217.13 177.837 217.038 177.745C216.855 177.561 216.581 177.469 216.398 177.286C216.398 177.286 216.398 177.286 216.398 177.194H209.352V180.224C209.352 182.427 211.182 184.263 213.378 184.263C215.574 184.263 217.404 182.427 217.404 180.224V178.02Z" fill="#FFB70A"/>
<path d="M209.352 180.224C209.352 180.958 209.535 181.693 209.901 182.244C210.725 182.06 211.274 181.326 211.274 180.407V178.847H209.352V180.224Z" fill="#F97D00"/>
<path d="M215.483 181.325C215.208 181.968 214.568 182.427 213.744 182.335C213.012 182.243 212.372 181.692 212.28 180.958L215.483 181.325Z" fill="white"/>
<path d="M208.894 193.995H214.842L216.58 185.916C216.58 185.273 216.123 184.814 215.482 184.814H214.567C214.567 184.814 214.476 186.467 213.286 186.467C211.731 186.467 211.822 184.814 211.822 184.814H211.273C210.633 184.814 210.175 185.365 210.175 186.008L208.986 190.965L208.254 193.261C208.071 193.628 208.437 193.995 208.894 193.995Z" fill="#ACC700"/>
<path d="M212.829 173.613C215.025 173.43 217.038 174.99 217.312 177.286L217.404 178.571L209.352 179.397L209.26 178.112C208.986 175.909 210.633 173.889 212.829 173.613Z" fill="#84D0F0"/>
<path d="M221.267 177.418L209.25 178.642L209.333 179.464L221.35 178.24L221.267 177.418Z" fill="#00A8E8"/>
<path d="M216.306 185.365L218.411 188.67L216.489 189.956L215.666 188.762L216.306 185.365Z" fill="#ACC700"/>
<path d="M218.41 204.094L221.338 203.084C221.521 202.992 221.796 203.084 221.796 203.36C221.887 203.543 221.796 203.819 221.521 203.819L218.593 204.829L218.41 204.094Z" fill="#00A8E8"/>
<path d="M203.313 199.596L203.587 202.625C203.587 202.809 203.496 202.993 203.222 203.084C203.039 203.084 202.856 202.993 202.764 202.717L202.49 199.688L203.313 199.596Z" fill="#00A8E8"/>
<path d="M221.887 190.782C222.443 190.782 222.894 190.33 222.894 189.772C222.894 189.214 222.443 188.762 221.887 188.762C221.331 188.762 220.881 189.214 220.881 189.772C220.881 190.33 221.331 190.782 221.887 190.782Z" fill="#FFB70A"/>
<path d="M203.404 191.333C203.96 191.333 204.411 190.881 204.411 190.323C204.411 189.765 203.96 189.313 203.404 189.313C202.849 189.313 202.398 189.765 202.398 190.323C202.398 190.881 202.849 191.333 203.404 191.333Z" fill="#FFB70A"/>
<path d="M22.143 170.492H19.1235V195.556H22.143V170.492Z" fill="#53241B"/>
<path d="M19.947 171.41C30.012 171.41 38.247 163.239 38.247 153.048V118.619C38.247 108.52 30.1035 100.257 19.947 100.257C9.88197 100.257 1.64697 108.428 1.64697 118.619V153.048C1.73847 163.239 9.88197 171.41 19.947 171.41Z" fill="#85AF05"/>
<path d="M48.5865 172.511C59.292 172.511 67.893 163.789 67.893 153.139V103.654C67.893 92.9119 59.2005 84.2817 48.5865 84.2817C37.881 84.2817 29.28 93.0037 29.28 103.654V153.139C29.28 163.789 37.9725 172.511 48.5865 172.511Z" fill="#85AF05"/>
<path d="M50.508 193.445H45.4755C46.848 191.608 47.6715 189.313 47.6715 186.742C47.6715 180.591 42.639 175.542 36.5085 175.542C33.489 175.542 30.744 176.735 28.731 178.755C27.9075 178.479 27.084 178.296 26.169 178.296C21.8685 178.296 18.3915 181.785 18.3915 186.1C18.3915 186.375 18.3915 186.651 18.3915 186.834C17.8425 186.742 17.202 186.742 16.653 186.926C13.8165 187.385 11.712 189.588 11.2545 192.159C10.797 192.067 10.248 191.976 9.79052 191.976C7.04552 191.976 4.66652 193.812 3.84302 196.291H50.4165V193.445H50.508Z" fill="#ACC700"/>
<path d="M91.7745 33.8779H55.449V73.9072H91.7745V33.8779Z" fill="#FDCC2E"/>
<path d="M96.8984 35.5306H51.3314C49.7759 35.5306 48.5864 34.3371 48.5864 32.7763C48.5864 31.2155 49.7759 30.022 51.3314 30.022H96.8069V35.5306H96.8984Z" fill="#004166"/>
<path d="M34.6785 115.314L106.689 12.3027L178.608 115.314H34.6785Z" fill="#FDCC2E"/>
<path d="M176.412 115.13L106.689 18.4541L38.0641 114.671L33.5806 111.366L106.689 8.81396L180.896 111.825L176.412 115.13Z" fill="white"/>
<path d="M32.3909 114.671L27.8159 111.366L103.669 4.77415C105.133 2.75432 108.153 2.75432 109.617 4.77415L185.653 110.448L181.078 113.753L106.689 10.191L32.3909 114.671Z" fill="#004166"/>
<path d="M11.529 162.596H30.1035C31.0185 162.596 31.7505 161.862 31.7505 160.944V136.798L9.79053 125.046V160.944C9.88203 161.862 10.614 162.596 11.529 162.596Z" fill="white"/>
<path d="M9.88208 153.966L31.8421 155.252V136.155L9.88208 125.046V153.966Z" fill="#004166"/>
<path d="M9.88208 125.046V151.212L22.7836 149.743V131.564L9.88208 125.046Z" fill="#00314D"/>
<path d="M22.5091 131.473V149.559L9.88208 150.936V151.579L23.1496 150.11V131.748L22.5091 131.473Z" fill="white"/>
<path d="M12.6952 146.322L29.0737 146.322L29.0737 140.63L12.6952 140.63L12.6952 146.322Z" fill="white"/>
<path d="M29.463 146.713H12.261V140.195H29.463V146.713ZM13.0845 145.979H28.731V141.021H13.0845V145.979Z" fill="#007FC3"/>
<path d="M12.5354 157.18C12.6269 157.639 12.9929 159.016 12.9929 159.016C13.1759 159.75 13.9079 160.118 14.4569 160.118C14.4569 160.118 20.8619 160.118 21.5024 160.118C21.4109 159.659 21.0449 158.281 21.0449 158.281C20.8619 157.547 20.1299 157.18 19.5809 157.18C19.5809 157.18 13.1759 157.18 12.5354 157.18Z" fill="white"/>
<path d="M21.9599 160.393L21.3194 158.281C21.0449 157.455 20.3129 156.904 19.5809 156.904H12.1694L12.7184 159.016C12.9929 159.842 13.7249 160.301 14.4569 160.301L21.9599 160.393ZM13.2674 158.924C13.2674 158.924 12.9929 157.914 12.9014 157.455C13.5419 157.455 19.5809 157.455 19.5809 157.455C20.0384 157.455 20.6789 157.822 20.8619 158.373C20.8619 158.373 21.2279 159.659 21.2279 159.842C20.5874 159.842 14.5484 159.842 14.5484 159.842C13.9994 159.842 13.4504 159.475 13.2674 158.924Z" fill="#F7A100"/>
<path d="M13.2674 158.924C13.2674 158.924 12.9929 157.914 12.9014 157.455C13.5419 157.455 19.5809 157.455 19.5809 157.455C20.0384 157.455 20.6789 157.822 20.8619 158.373C20.8619 158.373 21.2279 159.659 21.2279 159.842C20.5874 159.842 14.5484 159.842 14.5484 159.842C13.9994 159.842 13.4504 159.475 13.2674 158.924Z" fill="#693F2E"/>
<path fill-rule="evenodd" clip-rule="evenodd" d="M14.3653 159.383H14.6398V158.373H14.9143V158.19H14.6398V158.006C14.6398 157.914 14.6398 157.914 14.7313 157.914H14.9143V157.73H14.6398C14.4568 157.73 14.3653 157.822 14.3653 158.006V158.19H14.0908L14.1823 158.373H14.3653V159.383Z" fill="white"/>
<path fill-rule="evenodd" clip-rule="evenodd" d="M15.1889 159.016C15.1889 159.291 15.3719 159.383 15.5549 159.383C15.6464 159.383 15.7379 159.291 15.8294 159.199V159.291H16.1039V158.098H15.8294V158.832C15.8294 159.016 15.7379 159.108 15.5549 159.108C15.4634 159.108 15.2804 159.016 15.2804 158.832V158.098H15.0059V159.016H15.1889Z" fill="white"/>
<path fill-rule="evenodd" clip-rule="evenodd" d="M16.4697 159.383H16.7442V158.649C16.7442 158.465 16.8357 158.373 17.0187 158.373C17.1102 158.373 17.2932 158.465 17.2932 158.649V159.383H17.5677V158.649C17.5677 158.373 17.3847 158.281 17.2017 158.281C17.1102 158.281 16.9272 158.373 16.9272 158.465V158.373H16.4697V159.383Z" fill="white"/>
<path fill-rule="evenodd" clip-rule="evenodd" d="M18.4828 159.383H18.7573V157.73H18.4828V158.373C18.3913 158.281 18.2998 158.19 18.2083 158.19C18.0253 158.19 17.9338 158.281 17.9338 158.373C17.8423 158.465 17.8423 158.557 17.8423 158.832C17.8423 159.108 17.8423 159.199 17.9338 159.291C18.0253 159.383 18.1168 159.475 18.2083 159.475C18.2998 159.475 18.3913 159.383 18.4828 159.383ZM18.2083 158.465C18.3913 158.465 18.4828 158.649 18.4828 158.832C18.4828 159.016 18.4828 159.199 18.2083 159.199C18.0253 159.199 17.9338 159.016 17.9338 158.832C18.0253 158.649 18.0253 158.465 18.2083 158.465Z" fill="white"/>
<path fill-rule="evenodd" clip-rule="evenodd" d="M19.7638 159.383H20.0383V158.557C20.0383 158.281 19.8553 158.189 19.5808 158.189C19.3978 158.189 19.3063 158.281 19.2148 158.373L19.3978 158.557C19.3978 158.465 19.4893 158.465 19.5808 158.465C19.7638 158.465 19.8553 158.465 19.8553 158.649V158.74H19.4893C19.2148 158.74 19.1233 158.924 19.1233 159.108C19.1233 159.291 19.3063 159.475 19.5808 159.475C19.7638 159.475 19.8553 159.475 19.8553 159.383H19.7638ZM19.7638 159.016C19.7638 159.199 19.6723 159.199 19.4893 159.199C19.3063 159.199 19.3063 159.108 19.3063 159.016C19.3063 158.924 19.3978 158.832 19.4893 158.832L19.7638 159.016Z" fill="white"/>
<path fill-rule="evenodd" clip-rule="evenodd" d="M29.3714 156.353H28.3649C28.1819 156.353 27.9989 156.537 27.9989 156.72C28.1819 156.72 28.3649 156.904 28.3649 157.179C28.3649 157.455 28.1819 157.638 27.9074 157.638C27.6329 157.638 27.4499 157.455 27.4499 157.179C27.4499 156.996 27.6329 156.812 27.8159 156.72C27.8159 156.537 27.6329 156.353 27.4499 156.353H26.4434C26.2604 156.353 26.1689 156.445 26.1689 156.628V159.75C26.1689 159.842 26.2604 159.934 26.3519 159.934H27.0839C27.1754 159.934 27.1754 159.842 27.1754 159.842V158.74C27.1754 158.648 27.0839 158.465 26.9009 158.465C26.6264 158.465 26.4434 158.281 26.4434 158.006C26.4434 157.73 26.6264 157.547 26.9009 157.547C27.1754 157.547 27.3584 157.73 27.3584 158.006V159.842C27.3584 159.934 27.4499 160.025 27.5414 160.025H28.3649C28.4564 160.025 28.5479 159.934 28.5479 159.842V158.006C28.5479 157.73 28.7309 157.547 29.0054 157.547C29.2799 157.547 29.4629 157.73 29.4629 158.006C29.4629 158.281 29.2799 158.465 29.0054 158.465C28.9139 158.465 28.8224 158.556 28.8224 158.648V159.75C28.8224 159.842 28.9139 159.842 28.9139 159.842H29.5544C29.6459 159.842 29.7374 159.75 29.7374 159.658V156.537C29.6459 156.445 29.5544 156.353 29.3714 156.353Z" fill="#007FC3"/>
<path fill-rule="evenodd" clip-rule="evenodd" d="M26.2605 161.127V160.209H26.535L26.901 160.852V160.209H27.1755V161.127H26.8095L26.4435 160.484V161.127H26.2605Z" fill="#007FC3"/>
<path fill-rule="evenodd" clip-rule="evenodd" d="M27.2671 160.209H27.5416L27.8161 160.852L27.9991 160.209H28.2736L27.9076 161.127H27.6331L27.2671 160.209Z" fill="#007FC3"/>
<path fill-rule="evenodd" clip-rule="evenodd" d="M28.365 161.127V160.209H28.8225L29.0055 160.852L29.28 160.209H29.646V161.127H29.3715V160.393L29.1885 161.127H28.914L28.6395 160.393V161.127H28.365Z" fill="#007FC3"/>
<path d="M24.7965 144.05H17.2935C17.1105 144.05 17.019 143.959 17.019 143.775V143.224C17.019 143.041 17.1105 142.949 17.2935 142.949H24.7965C24.9795 142.949 25.071 143.041 25.071 143.224V143.775C25.071 143.867 24.888 144.05 24.7965 144.05Z" fill="#53241B"/>
<path d="M7.22852 123.393L41.2665 140.378" stroke="white" stroke-width="1.2989" stroke-miterlimit="10"/>
<path d="M7.59456 125.046C8.45364 125.046 9.15006 124.347 9.15006 123.485C9.15006 122.623 8.45364 121.924 7.59456 121.924C6.73548 121.924 6.03906 122.623 6.03906 123.485C6.03906 124.347 6.73548 125.046 7.59456 125.046Z" fill="#FDCC2E"/>
<path d="M37.1492 138.358L41.2667 145.152V140.378L37.1492 138.358Z" fill="white"/>
<path d="M172.478 110.448H40.8091V196.199H172.478V110.448Z" fill="#FDCC2E"/>
<path d="M40.8091 117.058H45.5671L40.8091 121.281V117.058Z" fill="#FFB70A"/>
<path d="M45.4755 109.805H25.803V116.966H45.4755V109.805Z" fill="white"/>
<path d="M187.484 115.956V109.805H167.811V117.058H186.477L187.484 115.956Z" fill="white"/>
<path d="M172.478 117.058H167.811L172.478 121.281V117.058Z" fill="#FFB70A"/>
<path d="M137.89 110.264H75.396V111.825H137.89V110.264Z" fill="#F97D00"/>
<path d="M137.982 111.825H75.396V112.926C75.396 114.028 76.311 114.946 77.409 114.946H135.969C137.067 114.946 137.982 114.028 137.982 112.926V111.825Z" fill="#F7A100"/>
<path d="M136.426 76.2939H76.9514V108.887H136.426V76.2939Z" fill="#53241B"/>
<path d="M89.487 76.478V86.0263C89.487 90.3414 86.01 93.922 81.618 93.922V110.172H77.043V76.478H89.487Z" fill="#00A8E8"/>
<path d="M123.708 76.478V86.0263C123.708 90.3414 127.185 93.922 131.577 93.922V110.172H136.152V76.478H123.708Z" fill="#00A8E8"/>
<path d="M103.212 76.7534L81.7095 99.0633V107.418H102.48L123.708 85.659V77.0289L103.212 76.7534Z" fill="#694039"/>
<path d="M81.7096 99.063L77.2261 103.654L78.5071 107.418H81.7096V99.063Z" fill="#0085B8"/>
<path d="M123.708 85.659L132.035 77.0288H123.708V85.659Z" fill="#0085B8"/>
<path d="M87.1996 107.51C85.9186 107.51 84.8206 106.408 84.8206 105.122V102.368H89.5786V105.122C89.5786 106.408 88.5721 107.51 87.1996 107.51Z" fill="#53241B"/>
<path d="M87.291 102.736C88.2007 102.736 88.938 101.996 88.938 101.083C88.938 100.171 88.2007 99.4307 87.291 99.4307C86.3814 99.4307 85.644 100.171 85.644 101.083C85.644 101.996 86.3814 102.736 87.291 102.736Z" fill="#53241B"/>
<path d="M85.7356 100.073C86.6452 100.073 87.3826 99.3333 87.3826 98.4206C87.3826 97.5079 86.6452 96.7681 85.7356 96.7681C84.826 96.7681 84.0886 97.5079 84.0886 98.4206C84.0886 99.3333 84.826 100.073 85.7356 100.073Z" fill="#53241B"/>
<path d="M87.4741 97.7778C88.3838 97.7778 89.1211 97.0379 89.1211 96.1252C89.1211 95.2125 88.3838 94.4727 87.4741 94.4727C86.5645 94.4727 85.8271 95.2125 85.8271 96.1252C85.8271 97.0379 86.5645 97.7778 87.4741 97.7778Z" fill="#53241B"/>
<path d="M126.819 100.899V97.686H125.263V100.899C124.348 100.899 123.616 101.634 123.616 102.552V107.418H128.466V102.552C128.466 101.634 127.734 100.899 126.819 100.899Z" fill="#744C44"/>
<path d="M137.891 110.264H75.4875V74.8252H137.891V110.264ZM78.4155 107.418H134.963V77.7631H78.4155V107.418Z" fill="white"/>
<path d="M93.1471 76.2939H91.2256V107.785H93.1471V76.2939Z" fill="white"/>
<path d="M122.061 76.2939H120.14V107.785H122.061V76.2939Z" fill="white"/>
<path d="M160.857 184.355H108.336V196.29H160.857V184.355Z" fill="#004166"/>
<path d="M162.595 182.335H106.689V186.191H162.595V182.335Z" fill="white"/>
<path d="M160.857 147.172H108.336V182.335H160.857V147.172Z" fill="#53241B"/>
<path d="M110.623 147.355V182.335H108.336V147.172L110.623 147.355Z" fill="#694039"/>
<path d="M160.857 147.355V182.335H158.386V147.172L160.857 147.355Z" fill="#694039"/>
<path d="M117.028 169.757C114.832 169.757 113.002 167.921 113.002 165.717V162.963C113.002 160.76 114.832 158.923 117.028 158.923C119.224 158.923 121.054 160.76 121.054 162.963V165.717C121.054 167.921 119.224 169.757 117.028 169.757Z" fill="#694039"/>
<path d="M122.061 182.335H112.545V172.603C112.545 170.491 114.283 168.747 116.388 168.747H118.126C120.231 168.747 121.969 170.491 121.969 172.603V182.335H122.061Z" fill="#694039"/>
<path d="M131.485 169.757C129.289 169.757 127.459 167.921 127.459 165.717V162.963C127.459 160.76 129.289 158.923 131.485 158.923C133.681 158.923 135.511 160.76 135.511 162.963V165.717C135.511 167.921 133.773 169.757 131.485 169.757Z" fill="#694039"/>
<path d="M136.518 182.335H127.002V172.603C127.002 170.491 128.74 168.747 130.845 168.747H132.583C134.688 168.747 136.426 170.491 136.426 172.603V182.335H136.518Z" fill="#694039"/>
<path d="M150.883 169.757C148.687 169.757 146.857 167.921 146.857 165.717V162.963C146.857 160.76 148.687 158.923 150.883 158.923C153.079 158.923 154.909 160.76 154.909 162.963V165.717C154.909 167.921 153.171 169.757 150.883 169.757Z" fill="#694039"/>
<path d="M155.916 182.335H146.4V172.603C146.4 170.491 148.138 168.747 150.243 168.747H151.981C154.086 168.747 155.824 170.491 155.824 172.603V182.335H155.916Z" fill="#694039"/>
<path d="M116.754 145.152H114.375V184.355H116.754V145.152Z" fill="white"/>
<path d="M154.726 145.152H152.347V184.355H154.726V145.152Z" fill="white"/>
<path d="M164.059 137.715H104.95V143.499H164.059V137.715Z" fill="#004166"/>
<path d="M162.595 143.5H106.689V147.356H162.595V143.5Z" fill="white"/>
<path d="M108.227 152.979L108.227 155.366L160.839 155.366L160.839 152.979L108.227 152.979Z" fill="white"/>
<path d="M113.369 39.6616H100.01V53.0659H113.369V39.6616Z" fill="#53241B"/>
<path d="M99.3691 45.6294C99.7351 45.4458 100.101 45.1703 100.833 45.1703C102.297 45.1703 102.297 46.0884 103.761 46.0884C105.225 46.0884 105.225 45.1703 106.689 45.1703C108.153 45.1703 108.153 46.0884 109.617 46.0884C111.081 46.0884 111.081 45.1703 112.545 45.1703C113.46 45.1703 113.826 45.5376 114.284 45.813V39.1108H99.4606V45.6294H99.3691Z" fill="#00A8E8"/>
<path d="M114.1 39.478H98.637V41.2224H114.1V39.478Z" fill="#0085B8"/>
<path d="M98.4541 38.1011V54.6269H114.924V38.1011H98.4541ZM113.003 52.6989H100.467V40.1209H113.003V52.6989Z" fill="white"/>
<path d="M114.924 54.5352H98.3625V56.0959H114.924V54.5352Z" fill="#F97D00"/>
<path d="M114.924 56.0039H98.3625V57.1056C98.3625 58.2074 99.2775 59.1255 100.376 59.1255H112.911C114.009 59.1255 114.924 58.2074 114.924 57.1056V56.0039Z" fill="#F7A100"/>
<path d="M70.6379 130.095H65.4224C64.9649 130.095 64.5989 129.728 64.5989 129.269V127.8C64.5989 127.341 64.9649 126.974 65.4224 126.974H70.6379C71.0954 126.974 71.4614 127.341 71.4614 127.8V129.269C71.5529 129.728 71.1869 130.095 70.6379 130.095Z" fill="#FFB70A"/>
<path d="M74.8468 125.78H69.5398C69.0823 125.78 68.7163 125.413 68.7163 124.954V123.485C68.7163 123.026 69.0823 122.659 69.5398 122.659H74.7553C75.2128 122.659 75.5788 123.026 75.5788 123.485V124.954C75.6703 125.413 75.3043 125.78 74.8468 125.78Z" fill="#FFB70A"/>
<path d="M78.2324 130.095H73.5659C73.1084 130.095 72.7424 129.728 72.7424 129.269V127.8C72.7424 127.341 73.1084 126.974 73.5659 126.974H78.2324C78.6899 126.974 79.0559 127.341 79.0559 127.8V129.269C79.0559 129.728 78.6899 130.095 78.2324 130.095Z" fill="#FFB70A"/>
<path d="M117.303 122.659H122.519C122.976 122.659 123.342 123.026 123.342 123.485V124.954C123.342 125.413 122.976 125.78 122.519 125.78H117.303C116.846 125.78 116.48 125.413 116.48 124.954V123.485C116.388 123.026 116.846 122.659 117.303 122.659Z" fill="#FFB70A"/>
<path d="M44.5604 186.559H40.9004V189.68H44.5604C45.0179 189.68 45.3839 189.313 45.3839 188.854V187.385C45.3839 186.926 45.0179 186.559 44.5604 186.559Z" fill="#F7A100"/>
<path d="M121.054 126.882H126.27C126.727 126.882 127.093 127.249 127.093 127.708V129.177C127.093 129.636 126.727 130.003 126.27 130.003H121.054C120.597 130.003 120.231 129.636 120.231 129.177V127.708C120.231 127.341 120.597 126.882 121.054 126.882Z" fill="#FFB70A"/>
<path d="M122.061 59.3096H127.276C127.734 59.3096 128.1 59.6768 128.1 60.1359V61.6048C128.1 62.0639 127.734 62.4311 127.276 62.4311H122.061C121.603 62.4311 121.237 62.0639 121.237 61.6048V60.1359C121.237 59.6768 121.603 59.3096 122.061 59.3096Z" fill="#FFB70A"/>
<path d="M118.309 63.6245H123.525C123.982 63.6245 124.348 63.9917 124.348 64.4508V65.9198C124.348 66.3788 123.982 66.7461 123.525 66.7461H118.309C117.852 66.7461 117.486 66.3788 117.486 65.9198V64.4508C117.486 63.9917 117.852 63.6245 118.309 63.6245Z" fill="#FFB70A"/>
<path d="M149.419 100.349H154.635C155.092 100.349 155.458 100.716 155.458 101.175V102.644C155.458 103.103 155.092 103.47 154.635 103.47H149.419C148.962 103.47 148.596 103.103 148.596 102.644V101.175C148.596 100.716 148.962 100.349 149.419 100.349Z" fill="#FFB70A"/>
<path d="M62.4944 194.271V151.579C62.4944 151.579 65.1479 142.857 75.0299 142.857C84.9119 142.857 87.7484 149.926 87.7484 152.956V195.556L62.4944 194.271Z" fill="#53241B"/>
<path d="M75.0299 137.715C65.2394 137.715 57.3704 145.703 57.3704 155.435V173.154H61.0304V156.169C61.0304 148.365 67.3439 142.03 75.1214 142.03C82.8989 142.03 89.2124 148.365 89.2124 156.169V173.154H92.8724V155.435C92.7809 145.703 84.8204 137.715 75.0299 137.715Z" fill="white"/>
<path d="M66.0629 148.09C65.4224 148.916 64.6904 149.742 63.8669 150.385V193.169L68.6249 190.965V150.018L66.0629 148.09Z" fill="#00A8E8"/>
<path d="M89.121 196.29H86.193V156.261C86.193 150.11 81.1605 145.06 75.03 145.06C68.8995 145.06 63.867 150.11 63.867 156.261V196.29H60.939V156.261C60.939 148.457 67.2525 142.122 75.03 142.122C82.8075 142.122 89.121 148.457 89.121 156.261V196.29Z" fill="white"/>
<path d="M91.0424 193.169H59.4749V197.3H91.0424V193.169Z" fill="#E6F2F7"/>
<path d="M67.0693 171.869C67.322 171.869 67.5268 171.335 67.5268 170.675C67.5268 170.016 67.322 169.482 67.0693 169.482C66.8166 169.482 66.6118 170.016 66.6118 170.675C66.6118 171.335 66.8166 171.869 67.0693 171.869Z" fill="#FDCC2E"/>
<path d="M78.3237 165.809H75.0297C73.7487 165.809 72.7422 164.799 72.7422 163.514V155.251L80.6112 156.812V163.514C80.7027 164.799 79.6047 165.809 78.3237 165.809Z" fill="#F97D00"/>
<path d="M74.9382 163.789L75.9447 165.442L77.5002 163.789V161.678H74.9382V163.789Z" fill="#FFB70A"/>
<path d="M75.8532 191.516H77.2257L76.3107 176.092H73.6572L75.8532 191.516Z" fill="#FDCC2E"/>
<path d="M73.6572 192.251H77.2257L77.1342 191.333H73.6572C73.3827 191.333 73.1997 191.516 73.1997 191.792C73.1997 191.975 73.3827 192.251 73.6572 192.251Z" fill="white"/>
<path d="M79.6963 155.526C78.7813 154.792 77.9578 154.884 76.8598 155.067C75.6703 155.251 74.4808 155.435 73.2913 155.343C73.1998 155.618 73.1998 155.802 73.1083 156.077L72.8338 159.015C72.6508 160.943 74.1148 162.688 76.0363 162.871C77.9578 163.055 79.6963 161.586 79.8793 159.658L80.1538 156.72C80.1538 156.445 80.1538 156.169 80.1538 155.894C79.9708 155.71 79.8793 155.618 79.6963 155.526Z" fill="#FFB70A"/>
<path d="M74.9382 159.107C74.8467 159.841 75.3957 160.484 76.1277 160.576C76.8597 160.668 77.5002 160.117 77.5917 159.382L74.9382 159.107Z" fill="white"/>
<path d="M78.1407 153.139C77.3172 152.68 76.2192 152.405 75.0297 152.68C73.0167 153.047 72.4677 154.241 72.3762 154.792C72.3762 155.802 73.0167 156.077 73.0167 156.077L76.0362 156.353C76.9512 156.444 77.8662 156.077 78.4152 155.343L78.6897 154.241C78.7812 153.782 78.5982 153.323 78.1407 153.139Z" fill="#F97D00"/>
<path d="M75.3042 156.261C74.3892 156.169 74.0232 156.444 73.6572 156.903C73.3827 157.363 73.4742 158.097 73.1082 158.464C72.8337 158.74 72.8337 158.648 72.8337 158.648L73.0167 155.802L73.3827 155.71L75.0297 155.802L75.3042 156.261Z" fill="#F97D00"/>
<path d="M78.5067 155.526C78.4152 156.811 79.3302 157.913 80.5197 158.097C80.5197 158.097 80.8857 156.352 80.3367 154.975C79.9707 154.241 79.3302 153.965 78.7812 153.965H77.7747L78.5067 155.526Z" fill="#F97D00"/>
<path d="M78.2322 191.516H79.7877L79.5132 176.092H76.9512L78.2322 191.516Z" fill="#FDCC2E"/>
<path d="M81.8007 192.251H78.3237L78.2322 191.333H81.8007C82.0752 191.333 82.2582 191.608 82.2582 191.883C82.2582 192.067 82.0752 192.251 81.8007 192.251Z" fill="white"/>
<path d="M83.4478 165.075C84.1047 165.075 84.6373 164.54 84.6373 163.881C84.6373 163.222 84.1047 162.688 83.4478 162.688C82.7909 162.688 82.2583 163.222 82.2583 163.881C82.2583 164.54 82.7909 165.075 83.4478 165.075Z" fill="#FFB70A"/>
<path d="M80.7028 170.583C80.7943 170.583 80.7943 170.583 80.8858 170.583C81.7093 170.492 82.4413 170.033 82.7158 169.206L83.8138 164.983L82.4413 164.524L80.8858 168.38L78.7813 164.616L77.5918 166.36L79.2388 169.39C79.5133 170.124 79.9708 170.583 80.7028 170.583Z" fill="#0071B3"/>
<path d="M78.9644 173.888H73.4744V165.442C73.4744 164.432 74.2979 163.605 75.3044 163.605H77.1344C78.1409 163.605 78.9644 164.432 78.9644 165.442V173.888Z" fill="#0071B3"/>
<path d="M73.8404 169.573L71.3699 177.102C71.1869 177.561 71.5529 178.112 72.1019 178.112H80.7029C81.2519 178.112 81.6179 177.561 81.4349 177.102L78.5984 169.573H73.8404Z" fill="#0071B3"/>
<path d="M78.9644 169.573H73.4744V170.491H78.9644V169.573Z" fill="#00314D"/>
<path d="M73.6573 164.708L71.5528 168.472L68.6248 164.249V167.921C68.9908 168.196 70.9123 170.951 71.4613 170.951C71.5528 170.951 71.5528 170.951 71.6443 170.951C72.3763 170.951 72.9253 170.124 73.2913 169.482L74.9383 166.452L73.6573 164.708Z" fill="#0071B3"/>
<path d="M99.918 99.5227H112.819V95.2076L99.918 94.4731V99.5227Z" fill="white"/>
<path d="M99.918 94.4731L112.819 95.2076V81.5278H99.918V94.4731Z" fill="#004166"/>
<path d="M99.918 81.5278V92.9123L107.512 91.9942V81.5278H99.918Z" fill="#00314D"/>
<path d="M107.238 81.5278V91.7188L99.918 92.5451V93.0959L107.695 92.1778V81.5278H107.238Z" fill="white"/>
<path d="M101.53 89.1572L111.138 89.1572L111.138 85.7602L101.53 85.7602L101.53 89.1572Z" fill="white" stroke="#007FC3" stroke-width="0.5461" stroke-miterlimit="10"/>
<path d="M108.245 87.312H104.31V87.8629H108.245V87.312Z" fill="#53241B"/>
<path d="M101.474 96.4009C101.565 96.6763 101.748 97.4108 101.748 97.4108C101.84 97.8698 102.297 98.0535 102.663 98.0535C102.663 98.0535 106.415 98.0535 106.781 98.0535C106.689 97.778 106.506 97.0436 106.506 97.0436C106.415 96.5845 105.957 96.4009 105.591 96.4009C105.591 96.4009 101.84 96.4009 101.474 96.4009Z" fill="white"/>
<path d="M106.964 98.2371L106.598 96.9518C106.415 96.4927 105.957 96.1255 105.591 96.1255H101.291L101.657 97.4108C101.84 97.8699 102.297 98.1453 102.663 98.2371H106.964ZM101.931 97.4108C101.931 97.4108 101.748 96.86 101.657 96.5845C102.023 96.5845 105.591 96.5845 105.591 96.5845C105.866 96.5845 106.232 96.7682 106.323 97.1354C106.323 97.1354 106.506 97.8699 106.598 97.9617C106.232 97.9617 102.663 97.9617 102.663 97.9617C102.389 97.9617 102.023 97.7781 101.931 97.4108Z" fill="#F7A100"/>
<path d="M101.931 97.4108C101.931 97.4108 101.748 96.8599 101.656 96.5845C102.022 96.5845 105.591 96.5845 105.591 96.5845C105.865 96.5845 106.231 96.7681 106.323 97.1353C106.323 97.1353 106.506 97.8698 106.597 97.9616C106.231 97.9616 102.663 97.9616 102.663 97.9616C102.388 97.9616 102.022 97.778 101.931 97.4108Z" fill="#693F2E"/>
<path fill-rule="evenodd" clip-rule="evenodd" d="M102.571 97.6862H102.754V97.1353H102.937V97.0435H102.754V96.9517C102.754 96.9517 102.754 96.8599 102.846 96.8599H102.937V96.7681H102.846C102.754 96.7681 102.663 96.8599 102.663 96.9517V97.0435H102.48V97.1353H102.571V97.6862Z" fill="white"/>
<path fill-rule="evenodd" clip-rule="evenodd" d="M103.029 97.4107C103.029 97.5943 103.121 97.6861 103.304 97.6861C103.395 97.6861 103.395 97.6861 103.487 97.5943V97.6861H103.67V97.0435H103.395V97.4107C103.395 97.5025 103.304 97.5943 103.304 97.5943C103.212 97.5943 103.212 97.5025 103.212 97.4107V97.0435H103.029V97.4107Z" fill="white"/>
<path fill-rule="evenodd" clip-rule="evenodd" d="M103.761 97.6861H103.944V97.3189C103.944 97.2271 104.035 97.1353 104.035 97.1353C104.127 97.1353 104.127 97.2271 104.127 97.3189V97.6861H104.31V97.2271C104.31 97.0435 104.218 96.9517 104.127 96.9517C104.035 96.9517 104.035 96.9517 103.944 97.0435V96.9517H103.761V97.6861Z" fill="white"/>
<path fill-rule="evenodd" clip-rule="evenodd" d="M104.95 97.6862H105.133V96.6763H104.95V97.0435C104.859 96.9517 104.859 96.9517 104.767 96.9517C104.676 96.9517 104.584 96.9517 104.584 97.0435C104.584 97.1353 104.493 97.1353 104.493 97.3189C104.493 97.5026 104.493 97.5026 104.584 97.5944C104.584 97.6862 104.676 97.6862 104.767 97.6862C104.859 97.6862 104.95 97.6862 104.95 97.6862ZM104.859 97.1353C104.95 97.1353 104.95 97.2271 104.95 97.3189C104.95 97.4107 104.95 97.5026 104.859 97.5026C104.767 97.5026 104.767 97.4107 104.767 97.3189C104.676 97.2271 104.676 97.1353 104.859 97.1353Z" fill="white"/>
<path fill-rule="evenodd" clip-rule="evenodd" d="M105.682 97.6861H105.865V97.2271C105.865 97.0435 105.774 97.0435 105.591 97.0435C105.499 97.0435 105.408 97.0435 105.316 97.1353L105.408 97.2271L105.499 97.1353C105.591 97.1353 105.682 97.1353 105.682 97.2271V97.3189H105.499C105.316 97.3189 105.316 97.4107 105.316 97.5025C105.316 97.5943 105.408 97.6861 105.591 97.6861H105.682ZM105.682 97.4107C105.682 97.5025 105.682 97.5025 105.499 97.5025C105.408 97.5025 105.408 97.5025 105.408 97.4107C105.408 97.3189 105.408 97.3189 105.499 97.3189L105.682 97.4107Z" fill="white"/>
<path fill-rule="evenodd" clip-rule="evenodd" d="M111.356 95.8501H110.715C110.624 95.8501 110.532 95.9419 110.532 96.0337C110.624 96.0337 110.715 96.1255 110.715 96.3091C110.715 96.4928 110.624 96.5846 110.441 96.5846C110.258 96.5846 110.166 96.4928 110.166 96.3091C110.166 96.2173 110.258 96.0337 110.349 96.0337C110.349 95.9419 110.258 95.8501 110.166 95.8501H109.526C109.434 95.8501 109.343 95.9419 109.343 96.0337V97.8699C109.343 97.8699 109.343 97.9617 109.434 97.9617H109.892C109.892 97.9617 109.983 97.9617 109.983 97.8699V97.2273C109.983 97.1354 109.892 97.1354 109.892 97.0436C109.709 97.0436 109.617 96.9518 109.617 96.7682C109.617 96.5846 109.709 96.4928 109.892 96.4928C110.075 96.4928 110.166 96.5846 110.166 96.7682V97.8699C110.166 97.8699 110.166 97.9617 110.258 97.9617H110.715C110.715 97.9617 110.807 97.9617 110.807 97.8699V96.7682C110.807 96.5846 110.898 96.4928 111.081 96.4928C111.264 96.4928 111.356 96.5846 111.356 96.7682C111.356 96.9518 111.264 97.0436 111.081 97.0436C110.99 97.0436 110.99 97.1354 110.99 97.1354V97.7781C110.99 97.7781 110.99 97.8699 111.081 97.8699H111.447C111.447 97.8699 111.539 97.8699 111.539 97.7781V95.9419C111.539 95.9419 111.447 95.8501 111.356 95.8501Z" fill="#007FC3"/>
<path fill-rule="evenodd" clip-rule="evenodd" d="M109.526 98.6964V98.1455H109.709L109.892 98.5128V98.1455H110.075V98.6964H109.892L109.617 98.3291V98.6964H109.526Z" fill="#007FC3"/>
<path fill-rule="evenodd" clip-rule="evenodd" d="M110.166 98.1455H110.349L110.441 98.5128L110.532 98.1455H110.715L110.532 98.6964H110.349L110.166 98.1455Z" fill="#007FC3"/>
<path fill-rule="evenodd" clip-rule="evenodd" d="M110.807 98.6964V98.1455H110.99L111.173 98.5128L111.264 98.1455H111.539V98.6964H111.356V98.2373L111.264 98.6964H111.081L110.898 98.2373V98.6964H110.807Z" fill="#007FC3"/>
<path d="M136.976 175.725H149.877V171.41L136.976 170.675V175.725Z" fill="white"/>
<path d="M136.976 170.675L149.877 171.41V157.638H136.976V170.675Z" fill="#004166"/>
<path d="M136.976 157.638V169.023L144.57 168.196V157.638H136.976Z" fill="#00314D"/>
<path d="M144.204 157.638V167.921L136.976 168.747V169.298L144.753 168.38V157.638H144.204Z" fill="white"/>
<path d="M138.567 165.315L148.174 165.315L148.174 161.918L138.567 161.918L138.567 165.315Z" fill="white" stroke="#007FC3" stroke-width="0.5461" stroke-miterlimit="10"/>
<path d="M145.302 163.422H141.368V163.973H145.302V163.422Z" fill="#53241B"/>
<path d="M138.531 172.603C138.623 172.878 138.806 173.613 138.806 173.613C138.897 174.072 139.355 174.256 139.721 174.256C139.721 174.256 143.472 174.256 143.838 174.256C143.747 173.98 143.564 173.246 143.564 173.246C143.472 172.787 143.015 172.603 142.649 172.603C142.649 172.603 138.897 172.603 138.531 172.603Z" fill="white"/>
<path d="M144.021 174.439L143.655 173.154C143.472 172.695 143.015 172.328 142.649 172.328H138.348L138.714 173.613C138.897 174.072 139.355 174.347 139.721 174.439H144.021ZM138.989 173.521C138.989 173.521 138.806 172.97 138.714 172.695C139.08 172.695 142.649 172.695 142.649 172.695C142.923 172.695 143.289 172.878 143.381 173.246C143.381 173.246 143.564 173.98 143.655 174.072C143.289 174.072 139.721 174.072 139.721 174.072C139.355 174.164 139.08 173.888 138.989 173.521Z" fill="#F7A100"/>
<path d="M138.989 173.521C138.989 173.521 138.806 172.97 138.714 172.695C139.08 172.695 142.649 172.695 142.649 172.695C142.923 172.695 143.289 172.878 143.381 173.246C143.381 173.246 143.564 173.98 143.655 174.072C143.289 174.072 139.721 174.072 139.721 174.072C139.355 174.164 139.08 173.888 138.989 173.521Z" fill="#693F2E"/>
<path fill-rule="evenodd" clip-rule="evenodd" d="M139.629 173.888H139.812V173.337H139.995V173.246H139.812V173.154C139.812 173.154 139.812 173.062 139.904 173.062H139.995V172.97H139.904C139.812 172.97 139.721 173.062 139.721 173.154V173.246H139.538V173.337H139.629V173.888Z" fill="white"/>
<path fill-rule="evenodd" clip-rule="evenodd" d="M140.087 173.613C140.087 173.796 140.178 173.888 140.361 173.888C140.453 173.888 140.453 173.888 140.544 173.796V173.888H140.727V173.246H140.544V173.613C140.544 173.705 140.453 173.796 140.453 173.796C140.361 173.796 140.361 173.705 140.361 173.613V173.246H140.178V173.613H140.087Z" fill="white"/>
<path fill-rule="evenodd" clip-rule="evenodd" d="M140.819 173.888H141.002V173.521C141.002 173.429 141.093 173.337 141.093 173.337C141.185 173.337 141.185 173.429 141.185 173.521V173.888H141.368V173.429C141.368 173.246 141.276 173.154 141.185 173.154C141.093 173.154 141.093 173.154 141.002 173.246V173.154H140.819V173.888Z" fill="white"/>
<path fill-rule="evenodd" clip-rule="evenodd" d="M142.008 173.888H142.191V172.878H142.008V173.246C141.917 173.154 141.917 173.154 141.825 173.154C141.734 173.154 141.642 173.154 141.642 173.246C141.642 173.337 141.551 173.337 141.551 173.521C141.551 173.705 141.551 173.705 141.642 173.797C141.642 173.888 141.734 173.888 141.825 173.888C141.917 173.888 142.008 173.797 142.008 173.888ZM141.917 173.246C142.008 173.246 142.008 173.337 142.008 173.429C142.008 173.521 142.008 173.613 141.917 173.613C141.825 173.613 141.825 173.521 141.825 173.429C141.734 173.429 141.734 173.246 141.917 173.246Z" fill="white"/>
<path fill-rule="evenodd" clip-rule="evenodd" d="M142.74 173.888H142.923V173.429C142.923 173.246 142.832 173.246 142.649 173.246C142.557 173.246 142.466 173.246 142.374 173.337L142.466 173.429L142.557 173.337C142.649 173.337 142.74 173.337 142.74 173.429V173.521H142.557C142.374 173.521 142.374 173.613 142.374 173.705C142.374 173.796 142.466 173.888 142.649 173.888C142.649 173.888 142.74 173.796 142.74 173.888ZM142.74 173.613C142.74 173.705 142.74 173.705 142.557 173.705C142.466 173.705 142.466 173.705 142.466 173.613C142.466 173.521 142.466 173.521 142.557 173.521L142.74 173.613Z" fill="white"/>
<path fill-rule="evenodd" clip-rule="evenodd" d="M148.413 172.052H147.773C147.681 172.052 147.59 172.144 147.59 172.236C147.681 172.236 147.773 172.328 147.773 172.511C147.773 172.695 147.681 172.787 147.498 172.787C147.315 172.787 147.224 172.695 147.224 172.511C147.224 172.419 147.315 172.236 147.407 172.236C147.407 172.144 147.315 172.052 147.224 172.052H146.583C146.492 172.052 146.4 172.144 146.4 172.236V174.072C146.4 174.072 146.4 174.164 146.492 174.164H146.949C146.949 174.164 147.041 174.164 147.041 174.072V173.429C147.041 173.338 146.949 173.338 146.949 173.246C146.766 173.246 146.675 173.154 146.675 172.97C146.675 172.787 146.766 172.695 146.949 172.695C147.132 172.695 147.224 172.787 147.224 172.97V174.072C147.224 174.072 147.224 174.164 147.315 174.164H147.773C147.773 174.164 147.864 174.164 147.864 174.072V172.97C147.864 172.787 147.956 172.695 148.139 172.695C148.322 172.695 148.413 172.787 148.413 172.97C148.413 173.154 148.322 173.246 148.139 173.246C148.047 173.246 148.047 173.338 148.047 173.338V173.98C148.047 173.98 148.047 174.072 148.139 174.072H148.505C148.505 174.072 148.596 174.072 148.596 173.98V172.144C148.596 172.144 148.505 172.052 148.413 172.052Z" fill="#007FC3"/>
<path fill-rule="evenodd" clip-rule="evenodd" d="M146.583 174.899V174.348H146.766L146.949 174.715V174.348H147.132V174.899H146.949L146.675 174.439V174.899H146.583Z" fill="#007FC3"/>
<path fill-rule="evenodd" clip-rule="evenodd" d="M147.224 174.348H147.315L147.498 174.715L147.59 174.348H147.773L147.59 174.899H147.407L147.224 174.348Z" fill="#007FC3"/>
<path fill-rule="evenodd" clip-rule="evenodd" d="M147.864 174.899V174.348H148.047L148.23 174.715L148.322 174.348H148.596V174.899H148.413V174.439L148.23 174.899H148.139L147.956 174.439V174.899H147.864Z" fill="#007FC3"/>
<path d="M314.577 183.345L315.858 181.601C316.224 181.05 316.773 180.683 317.413 180.683H318.054C319.335 180.683 320.25 181.968 319.792 183.161L318.786 186.191C318.511 187.109 317.597 187.66 316.682 187.385C316.133 187.201 315.675 186.834 315.492 186.375L314.668 184.63C314.485 184.171 314.302 183.896 314.577 183.345Z" fill="#FFB70A"/>
<path d="M316.315 183.712H306.799V185.824H316.315V183.712Z" fill="#FFB70A"/>
<path d="M302.407 184.172C302.682 183.896 303.139 183.804 303.505 183.896H303.597C304.603 184.172 304.603 185.273 304.695 186.1C304.878 187.477 306.159 187.844 307.714 187.844V187.11C307.714 187.11 308.446 183.988 308.446 183.896C308.446 183.621 308.446 183.437 308.355 183.254C308.08 181.417 306.982 177.837 305.061 175.725C303.597 174.072 300.943 174.532 300.028 176.551L297.375 182.427C296.917 183.529 297.283 184.814 298.29 185.457C299.205 186.008 300.394 185.916 301.218 185.182L302.407 184.172Z" fill="#FFB70A"/>
<path d="M315.492 184.355H308.172C307.806 184.355 307.623 184.08 307.623 183.804C307.623 183.437 307.898 183.253 308.172 183.253H315.492C315.858 183.253 316.041 183.529 316.041 183.804C316.133 184.08 315.858 184.355 315.492 184.355Z" fill="#53241B"/>
<path d="M309.636 191.333C309.453 191.333 309.361 191.241 309.27 191.149C309.178 190.965 309.178 190.69 309.453 190.598L313.479 188.119C313.662 188.028 313.936 188.028 314.028 188.303C314.119 188.487 314.119 188.762 313.845 188.854L309.819 191.333C309.727 191.333 309.727 191.333 309.636 191.333Z" fill="#F97D00"/>
<path d="M309.636 188.854C309.453 188.854 309.361 188.762 309.27 188.67C309.178 188.486 309.178 188.211 309.453 188.119L313.479 185.64C313.662 185.549 313.936 185.549 314.028 185.824C314.119 186.008 314.119 186.283 313.845 186.375L309.819 188.854C309.727 188.854 309.727 188.854 309.636 188.854Z" fill="#F97D00"/>
<path d="M309.636 193.904C309.453 193.904 309.361 193.812 309.27 193.72C309.178 193.536 309.178 193.261 309.453 193.169L313.479 190.69C313.662 190.598 313.936 190.598 314.028 190.874C314.119 191.057 314.119 191.333 313.845 191.425L309.819 193.904C309.727 193.904 309.727 193.904 309.636 193.904Z" fill="#F97D00"/>
<path d="M309.636 196.474C309.453 196.474 309.361 196.383 309.27 196.291C309.178 196.107 309.178 195.832 309.453 195.74L313.479 193.261C313.662 193.169 313.936 193.169 314.028 193.445C314.119 193.628 314.119 193.904 313.845 193.995L309.819 196.474C309.727 196.383 309.727 196.474 309.636 196.474Z" fill="#F97D00"/>
<path d="M314.028 188.854H309.636C309.361 188.854 309.178 188.671 309.178 188.395C309.178 188.12 309.361 187.936 309.636 187.936H314.028C314.302 187.936 314.485 188.12 314.485 188.395C314.485 188.671 314.302 188.854 314.028 188.854Z" fill="#F7A100"/>
<path d="M314.028 191.424H309.636C309.361 191.424 309.178 191.241 309.178 190.965C309.178 190.69 309.361 190.506 309.636 190.506H314.028C314.302 190.506 314.485 190.69 314.485 190.965C314.485 191.241 314.302 191.424 314.028 191.424Z" fill="#F7A100"/>
<path d="M314.028 193.903H309.636C309.361 193.903 309.178 193.72 309.178 193.444C309.178 193.169 309.361 192.985 309.636 192.985H314.028C314.302 192.985 314.485 193.169 314.485 193.444C314.485 193.72 314.302 193.903 314.028 193.903Z" fill="#F7A100"/>
<path d="M314.028 196.474H309.636C309.361 196.474 309.178 196.291 309.178 196.015C309.178 195.74 309.361 195.556 309.636 195.556H314.028C314.302 195.556 314.485 195.74 314.485 196.015C314.485 196.291 314.302 196.474 314.028 196.474Z" fill="#F7A100"/>
<path d="M315.4 187.293H307.714V186.375C307.714 185.641 308.355 184.998 309.087 184.998H314.119C314.851 184.998 315.492 185.641 315.492 186.375V187.293H315.4Z" fill="#F97D00"/>
<path d="M301.675 180.775C302.231 180.775 302.682 180.323 302.682 179.765C302.682 179.207 302.231 178.755 301.675 178.755C301.12 178.755 300.669 179.207 300.669 179.765C300.669 180.323 301.12 180.775 301.675 180.775Z" fill="white"/>
<path d="M303.139 177.469C303.594 177.469 303.963 177.1 303.963 176.643C303.963 176.187 303.594 175.817 303.139 175.817C302.685 175.817 302.316 176.187 302.316 176.643C302.316 177.1 302.685 177.469 303.139 177.469Z" fill="#F97D00"/>
<path d="M306.708 186.742C307.062 186.742 307.348 186.455 307.348 186.1C307.348 185.745 307.062 185.457 306.708 185.457C306.354 185.457 306.067 185.745 306.067 186.1C306.067 186.455 306.354 186.742 306.708 186.742Z" fill="#F97D00"/>
<path d="M316.773 186.742C317.127 186.742 317.413 186.455 317.413 186.1C317.413 185.745 317.127 185.457 316.773 185.457C316.419 185.457 316.132 185.745 316.132 186.1C316.132 186.455 316.419 186.742 316.773 186.742Z" fill="#F97D00"/>
<path d="M346.694 185.457H345.687V182.243H346.694C349.622 182.243 352.001 179.856 352.001 176.918V166.819H355.203V176.918C355.295 181.601 351.452 185.457 346.694 185.457Z" fill="#53241B"/>
<path d="M347.334 172.879H344.131V204.37H347.334V172.879Z" fill="#53241B"/>
<path d="M345.778 173.521C355.111 173.521 362.706 165.901 362.706 156.536V124.495C362.706 115.13 355.111 107.51 345.778 107.51C336.445 107.51 328.851 115.13 328.851 124.495V156.536C328.759 165.901 336.354 173.521 345.778 173.521Z" fill="#ACC700"/>
<path d="M345.778 107.418C353.647 107.418 360.235 112.835 362.157 120.088C360.693 116.14 356.941 113.386 352.458 113.386C346.785 113.386 342.21 117.976 342.118 123.668V149.651C342.118 155.343 337.543 160.025 331.779 160.025C330.772 160.025 329.857 159.842 328.942 159.658C328.759 158.648 328.668 157.638 328.668 156.537V124.495C328.759 115.038 336.354 107.418 345.778 107.418Z" fill="#C0D219"/>
<path d="M85.461 201.34L83.5395 197.851H66.7035L64.782 201.34H85.461Z" fill="#C3DCE6"/>
<path d="M260.683 204.554H259.494V168.839C259.494 168.472 259.768 168.197 260.134 168.197C260.5 168.197 260.775 168.472 260.775 168.839V204.554H260.683Z" fill="#53241B"/>
<path d="M254.37 185.733C253.821 185.733 253.363 185.274 253.363 184.723V171.41C253.363 170.859 253.821 170.4 254.37 170.4H265.807C266.356 170.4 266.814 170.859 266.814 171.41V184.723C266.814 185.274 266.356 185.733 265.807 185.733H254.37Z" fill="white"/>
<path d="M253.18 180.5H266.905V171.594C266.905 170.859 266.265 170.217 265.533 170.217H254.461C253.729 170.217 253.089 170.859 253.089 171.594V180.5H253.18Z" fill="#F7A100"/>
<path d="M265.533 170.768H254.644C254.095 170.768 253.729 171.227 253.729 171.686V172.328C253.729 171.777 254.187 171.41 254.644 171.41H265.533C266.082 171.41 266.448 171.869 266.448 172.328V171.686C266.448 171.227 266.082 170.768 265.533 170.768Z" fill="#F97D00"/>
<path d="M265.624 169.757H254.553C253.546 169.757 252.723 170.584 252.723 171.594V184.539C252.723 185.549 253.546 186.375 254.553 186.375H265.624C266.631 186.375 267.454 185.549 267.454 184.539V171.594C267.454 170.584 266.631 169.757 265.624 169.757ZM266.448 184.355C266.448 184.906 265.99 185.273 265.533 185.273H254.644C254.095 185.273 253.729 184.814 253.729 184.355V171.685C253.729 171.134 254.187 170.767 254.644 170.767H265.533C266.082 170.767 266.448 171.226 266.448 171.685V184.355Z" fill="#53241B"/>
<path d="M262.148 182.427H258.03C257.756 182.427 257.573 182.244 257.573 181.968C257.573 181.693 257.756 181.509 258.03 181.509H262.148C262.422 181.509 262.605 181.693 262.605 181.968C262.514 182.244 262.331 182.427 262.148 182.427Z" fill="#F97D00"/>
<path d="M261.69 184.08H258.579C258.304 184.08 258.121 183.897 258.121 183.621C258.121 183.346 258.304 183.162 258.579 183.162H261.69C261.964 183.162 262.147 183.346 262.147 183.621C262.056 183.897 261.873 184.08 261.69 184.08Z" fill="#F97D00"/>
<path d="M260.043 172.512L257.298 174.899V178.847H258.396V176.46H259.677V178.847H262.696V174.899L260.043 172.512ZM261.873 177.745H260.592V176.46H261.873V177.745Z" fill="white"/>
<path d="M111.813 203.452H111.173V203.911H111.813V203.452Z" fill="#53241B"/>
<path d="M117.211 177.928V177.378C117.211 177.01 117.486 176.735 117.852 176.735H118.584C119.133 176.735 119.59 177.194 119.59 177.745C119.59 178.296 119.133 178.755 118.584 178.755H117.852C117.577 178.663 117.211 178.296 117.211 177.928Z" fill="#FDCC2E"/>
<path d="M118.507 178.135L117.601 177.226L116.501 178.33L117.407 179.239L118.507 178.135Z" fill="#FDCC2E"/>
<path d="M114.284 182.703C114.009 182.703 113.735 182.611 113.552 182.427L110.349 179.214L111.813 177.745L114.284 180.224L116.388 178.112L117.852 179.581L115.016 182.427C114.833 182.611 114.558 182.703 114.284 182.703Z" fill="#84D0F0"/>
<path d="M110.532 202.901L112.362 203.176V201.707H110.532V202.901Z" fill="#FDCC2E"/>
<path d="M110.44 201.707H112.453L112.636 188.211C112.362 187.568 111.904 187.018 111.172 187.018C110.532 187.018 109.983 187.568 109.983 188.211L110.44 201.707Z" fill="#53241B"/>
<path d="M114.283 203.819H113.551L110.44 201.707L110.349 201.891C110.074 202.258 110.074 202.809 110.349 203.176C110.623 203.543 110.806 204.002 110.898 204.461L110.989 204.737H111.172C111.172 204.737 111.172 204.278 111.172 203.819C111.172 203.635 111.355 203.543 111.538 203.635L113.094 204.645C113.185 204.737 113.277 204.737 113.368 204.737H114.283C114.558 204.737 114.832 204.461 114.741 204.094C114.741 203.91 114.558 203.819 114.283 203.819Z" fill="#53241B"/>
<path d="M113.551 203.819L111.538 201.707H110.44L113.551 203.819Z" fill="#FDCC2E"/>
<path d="M107.696 202.901L109.617 203.176V201.707H107.696V202.901Z" fill="#FDCC2E"/>
<path d="M107.695 201.707H109.708L109.8 188.211C109.525 187.568 109.068 187.018 108.336 187.018C107.695 187.018 107.146 187.568 107.146 188.211L107.695 201.707Z" fill="#53241B"/>
<path d="M111.63 203.819H110.807L107.696 201.707L107.604 201.891C107.33 202.258 107.33 202.809 107.604 203.176C107.879 203.543 108.062 204.002 108.153 204.461L108.245 204.737H108.428C108.428 204.737 108.428 204.278 108.428 203.819C108.428 203.635 108.611 203.543 108.794 203.635L110.349 204.645C110.441 204.737 110.532 204.737 110.624 204.737H111.63C111.905 204.737 112.179 204.461 112.088 204.094C112.088 203.91 111.813 203.819 111.63 203.819Z" fill="#53241B"/>
<path d="M110.715 203.819L108.702 201.707H107.696L110.715 203.819Z" fill="#FDCC2E"/>
<path d="M108.096 165.257C108.159 164.347 107.474 163.558 106.567 163.495C105.659 163.432 104.873 164.119 104.81 165.029C104.747 165.94 105.432 166.729 106.339 166.792C107.247 166.855 108.033 166.168 108.096 165.257Z" fill="#F97D00"/>
<path d="M108.153 176.001V172.42H111.173V176.001C111.173 176.827 110.532 177.561 109.617 177.561C108.794 177.561 108.153 176.827 108.153 176.001Z" fill="#F7A100"/>
<path d="M113.277 172.42C113.185 171.869 113.277 171.226 113.551 170.676C113.734 170.217 114.1 170.125 114.558 170.033C114.558 169.849 114.649 169.757 114.649 169.574C114.832 167.003 112.911 164.892 110.44 164.708C107.878 164.524 105.774 166.452 105.591 168.931C105.408 171.41 107.329 173.614 109.8 173.797C111.081 173.981 112.362 173.43 113.277 172.42Z" fill="#F97D00"/>
<path d="M110.532 175.358H110.349C108.702 175.266 107.421 173.797 107.604 172.145L107.879 168.289C107.879 167.646 108.519 167.095 109.16 167.187L112.911 167.462C113.552 167.462 114.101 168.105 114.009 168.748L113.735 172.604C113.643 174.164 112.179 175.45 110.532 175.358Z" fill="#F7A100"/>
<path d="M111.447 164.8C109.434 164.616 107.696 166.177 107.513 168.197L107.33 170.308L114.65 170.859L114.833 168.748C115.016 166.728 113.46 164.983 111.447 164.8Z" fill="#F97D00"/>
<path d="M108.702 167.554L111.63 167.738L111.264 164.8L109.709 164.708L108.702 167.554Z" fill="#F97D00"/>
<path d="M107.696 173.338C107.696 173.338 108.977 173.705 110.258 173.705C110.715 173.705 111.173 173.705 111.447 173.614C111.996 173.522 112.362 173.063 112.454 172.604L112.911 169.39L108.977 167.921L107.055 168.748L106.598 169.758L107.238 172.787L107.696 173.338Z" fill="#F97D00"/>
<path d="M112.637 192.343V182.335H107.33C106.323 183.162 105.683 184.447 105.683 185.916C105.683 186.742 105.957 187.569 106.323 188.303C106.872 189.221 107.238 190.231 107.33 192.435H112.637V192.343Z" fill="#84D0F0"/>
<path d="M110.898 176H108.062C107.238 176 106.506 176.735 106.506 177.745V183.713H112.637V177.745C112.637 176.827 111.813 176 110.898 176Z" fill="#84D0F0"/>
<path d="M129.198 203.635H131.394V185.548H128.649L129.198 203.635Z" fill="#53241B"/>
<path d="M125.812 203.635H128.008V185.548H125.263L125.812 203.635Z" fill="#53241B"/>
<path d="M125.261 188.257L131.208 188.257L131.208 186.054L125.261 186.054L125.261 188.257Z" fill="#53241B"/>
<path d="M131.76 176L133.499 180.866C133.773 181.601 133.59 182.335 133.133 182.886L131.76 184.722V176Z" fill="#F97D00"/>
<path d="M127.093 174.348C129.015 174.348 130.57 172.787 130.57 170.859V167.737C130.57 165.809 129.015 164.249 127.093 164.249C125.172 164.249 123.616 165.809 123.616 167.737V170.859C123.616 172.787 125.172 174.348 127.093 174.348Z" fill="#FDCC2E"/>
<path d="M126.495 175.518L129.972 175.518L129.972 171.019L126.495 171.019L126.495 175.518Z" fill="#FDCC2E"/>
<path d="M126.911 171.41H129.015C130.022 171.41 130.845 170.583 130.845 169.574V166.911C130.845 165.35 129.564 164.065 128.009 164.065H125.081V169.574C125.081 170.583 125.904 171.41 126.911 171.41Z" fill="white"/>
<path d="M124.623 167.003H126.362V164.157H123.342V165.718C123.342 166.36 123.891 167.003 124.623 167.003Z" fill="white"/>
<path d="M130.387 175.082H126.27C125.263 175.082 124.44 175.908 124.44 176.918V184.906C124.44 185.457 124.897 185.916 125.446 185.916H131.119C131.668 185.916 132.126 185.457 132.126 184.906V176.918C132.217 175.908 131.394 175.082 130.387 175.082Z" fill="#F97D00"/>
<path d="M127.368 204.829H131.394V203.635H127.368C127.002 203.635 126.819 203.911 126.819 204.186C126.819 204.553 127.002 204.829 127.368 204.829Z" fill="#53241B"/>
<path d="M123.982 204.829H128.008V203.635H123.982C123.616 203.635 123.433 203.911 123.433 204.186C123.433 204.553 123.708 204.829 123.982 204.829Z" fill="#53241B"/>
<path d="M124.989 185.457H125.538C125.812 185.457 125.995 185.273 125.995 184.998V183.529C125.995 183.253 125.812 183.07 125.538 183.07H124.989C124.714 183.07 124.531 183.253 124.531 183.529V184.998C124.44 185.273 124.714 185.457 124.989 185.457Z" fill="#FDCC2E"/>
<path d="M124.257 184.538L125.629 182.61L123.525 181.05C123.433 180.958 123.342 180.774 123.342 180.591C123.342 180.407 123.433 180.223 123.525 180.132L126.727 177.285L125.172 175.541L121.878 178.571C121.329 179.213 121.054 179.948 121.054 180.774C121.054 181.6 121.42 182.335 122.061 182.886L122.152 182.978L124.257 184.538Z" fill="#F97D00"/>
<path d="M49.3187 191.057L45.1097 191.424C44.3777 191.516 43.7372 190.965 43.7372 190.231L43.5542 188.395L50.3252 187.752L50.5082 189.588C50.5997 190.323 50.0507 190.965 49.3187 191.057Z" fill="#53241B"/>
<path d="M50.4167 187.936L43.7372 188.579C43.3712 188.579 43.0052 188.303 43.0052 187.936L42.2732 179.765C42.0902 178.204 43.2797 176.735 44.9267 176.643L46.4822 176.46C48.0377 176.276 49.5017 177.469 49.5932 179.122L50.4167 187.936Z" fill="#0071B3"/>
<path d="M47.3057 176.551L46.8482 177.653L44.1947 176.735L44.0117 173.246L47.3057 173.154V176.551Z" fill="#F7A100"/>
<path d="M50.6912 165.901C50.5997 165.901 50.4167 165.901 50.4167 165.717C50.0507 164.707 48.5867 164.065 47.5802 163.789C46.0247 163.422 44.4692 164.157 43.5542 165.442C43.4627 165.534 43.3712 165.534 43.2797 165.534C42.8222 166.268 42.5477 166.911 42.5477 167.829C42.5477 168.564 42.6392 169.298 42.6392 169.941C42.6392 170.124 42.4562 170.216 42.3647 170.216V171.501C42.3647 173.98 44.2862 175.908 46.7567 175.908C49.2272 175.908 51.1488 173.98 51.1488 171.501V167.829C51.1488 167.186 50.9657 166.544 50.6912 165.901Z" fill="#F7A100"/>
<path d="M50.3252 171.134C50.3252 171.869 49.7762 172.42 49.0442 172.42C48.3122 172.42 47.7632 171.869 47.7632 171.134H50.3252Z" fill="white"/>
<path d="M51.2401 165.901C50.5081 164.432 48.5866 163.606 46.8481 163.606C44.3776 163.606 42.4561 165.534 42.4561 168.013V170.584C42.4561 170.584 43.1881 170.675 44.0116 170.308C45.0181 169.849 45.0181 167.921 45.0181 167.921C45.0181 167.921 48.2206 167.829 49.0441 167.554C50.2336 167.003 51.2401 165.901 51.2401 165.901Z" fill="#53241B"/>
<path d="M52.2467 181.417C51.8807 181.417 51.4232 181.325 51.0572 181.234L48.2207 180.316L48.9527 178.02L51.7892 178.938C52.3382 179.122 53.0702 178.938 53.4362 178.479L55.7237 175.909L57.4622 177.469L55.1747 180.04C54.3512 180.958 53.3447 181.417 52.2467 181.417Z" fill="#0071B3"/>
<path d="M58.5235 176.439C58.5875 175.579 57.9449 174.83 57.0882 174.766C56.2315 174.702 55.4852 175.347 55.4212 176.206C55.3573 177.066 55.9999 177.815 56.8566 177.879C57.7132 177.943 58.4596 177.298 58.5235 176.439Z" fill="#F7A100"/>
<path d="M56.0897 175.725C55.9067 175.633 55.8152 175.358 55.9982 175.174L57.0962 173.705C57.1877 173.521 57.4622 173.43 57.6452 173.613C57.8282 173.705 57.9197 173.981 57.7367 174.164L56.6387 175.633C56.5472 175.817 56.2727 175.909 56.0897 175.725Z" fill="#F7A100"/>
<path d="M40.5347 188.303L38.4302 187.201L42.5477 179.214C42.8222 178.663 43.5542 178.387 44.1032 178.663C44.6522 178.938 44.9267 179.673 44.6522 180.224L40.5347 188.303Z" fill="#0071B3"/>
<path d="M46.4822 189.588L49.5932 195.923L49.6847 196.107V196.199L51.7892 204.094L49.8677 204.645L47.3972 196.841L47.4887 197.117L44.0117 190.966L46.4822 189.588Z" fill="#53241B"/>
<path d="M50.5082 189.864L48.6782 197.576L42.4562 201.524L41.3582 199.963L46.2992 196.015L47.6717 189.313L50.5082 189.864Z" fill="#53241B"/>
<path d="M53.8022 203.36L49.8677 204.645L50.1422 205.563L54.0767 204.278C54.3512 204.186 54.4427 203.911 54.3512 203.635C54.3512 203.452 54.0767 203.268 53.8022 203.36Z" fill="#53241B"/>
<path d="M43.6457 203.36L41.3582 199.871L40.5347 200.422L42.8222 203.911C43.0052 204.094 43.2797 204.186 43.4627 204.094C43.6457 204.003 43.8287 203.544 43.6457 203.36Z" fill="#53241B"/>
<path d="M32.757 173.062C32.757 173.062 38.247 173.246 38.247 168.013C38.247 165.167 35.5935 163.239 33.2145 163.239C30.2865 163.239 27.999 165.626 27.999 168.472V172.328C27.999 173.062 28.182 173.797 28.4565 174.44V169.574L32.757 173.062Z" fill="#53241B"/>
<path d="M34.587 164.983C33.9465 164.891 33.306 164.891 32.6655 164.799C32.391 164.799 32.025 164.708 31.7505 164.708C30.744 164.708 31.476 163.881 30.561 163.881C29.646 164.432 29.0055 165.075 28.548 165.809C27.633 167.278 27.1755 169.757 26.9925 170.124C26.169 172.328 24.522 173.705 24.522 176C24.522 176.551 24.522 178.296 27.084 179.397C30.1035 180.407 31.9335 179.305 31.9335 179.305L30.4695 173.338L34.587 164.983Z" fill="#53241B"/>
<path d="M35.8671 178.602L33.783 179.548L37.7799 188.415L39.8641 187.469L35.8671 178.602Z" fill="#F6641E"/>
<path d="M32.7571 175.909C34.2211 176.001 35.9596 176.276 36.3256 180.683C36.3256 181.05 37.6066 191.792 37.6066 191.792L33.6721 192.251L32.7571 175.909Z" fill="#F97D00"/>
<path d="M31.293 191.057C32.208 191.149 33.0315 190.231 33.123 189.129C33.2145 188.027 32.4825 187.109 31.5675 187.018L31.293 191.057Z" fill="#F5A23D"/>
<path d="M35.5938 184.447C35.5938 184.355 35.6852 184.355 35.5938 184.447C35.5938 184.355 35.6852 184.355 35.5938 184.447Z" fill="#0072BA"/>
<path d="M29.9207 190.139L30.8357 191.7L34.7702 189.68L34.3127 188.028L33.3977 187.018L30.5612 186.65L29.9207 190.139Z" fill="#0094DA"/>
<path d="M25.1626 202.35L24.7051 200.789L28.1821 198.127C29.0971 197.392 29.6461 196.382 29.9206 195.372L30.7441 190.598L33.3976 191.057L32.2081 195.923C31.8421 197.484 30.4696 198.769 29.1886 199.779L25.1626 202.35Z" fill="#00A8E8"/>
<path d="M39.1621 204.278L34.1296 190.598L36.4171 189.221L40.7176 203.727L39.1621 204.278Z" fill="#00A8E8"/>
<path d="M36.2341 189.129L36.1426 189.038C36.1426 189.038 36.1426 189.038 36.1426 188.946L29.3716 189.864V189.956C29.5546 189.864 29.7376 189.956 29.7376 190.139C29.7376 190.782 29.6461 191.333 29.3716 191.884C30.1036 192.618 31.1101 192.985 32.2081 192.802L33.5806 192.618C35.3191 192.343 36.6001 190.782 36.4171 189.038C36.3256 189.129 36.3256 189.129 36.2341 189.129Z" fill="#00A8E8"/>
<path d="M33.8551 189.497L33.2146 185.732L35.4106 186.1L36.1426 187.293" fill="white"/>
<path d="M36.4172 189.221C36.4172 189.221 35.1362 179.305 35.0447 178.755C34.9532 178.204 34.3127 176.276 31.9337 176.551C30.2867 176.643 29.0972 178.02 29.0972 179.673L29.1887 190.323L36.4172 189.221Z" fill="white"/>
<path d="M30.927 175.817C32.6655 175.817 32.8485 176.001 33.672 178.112C34.4955 180.224 34.6785 192.251 34.6785 192.251L28.4565 192.526C28.4565 192.526 29.1885 189.864 29.1885 187.11C29.1885 184.998 28.4565 180.224 28.8225 178.296C29.097 176.551 29.646 175.817 30.927 175.817Z" fill="#F97D00"/>
<path d="M33.1231 176.459C30.8356 176.459 28.9141 174.623 28.9141 172.236V168.38C28.9141 166.085 30.7441 164.157 33.1231 164.157C35.4106 164.157 37.3321 165.993 37.3321 168.38V172.236C37.3321 174.623 35.5021 176.459 33.1231 176.459Z" fill="#FFB70A"/>
<path d="M36.5085 171.777C36.5085 172.42 35.9595 173.062 35.2275 173.062C34.4955 173.062 33.9465 172.511 33.9465 171.777H36.5085Z" fill="white"/>
<path d="M30.1035 176.184V175.266C30.1035 175.266 34.221 173.981 34.221 180.958L30.1035 176.184Z" fill="#F97D00"/>
<path d="M43.4626 204.278L39.6196 205.655L39.1621 204.278L43.0051 202.901C43.3711 202.809 43.8286 202.993 43.9201 203.36C44.0116 203.727 43.8286 204.186 43.4626 204.278Z" fill="#53241B"/>
<path d="M26.6266 205.196L24.7966 205.104L23.4241 201.34L24.7966 200.789L25.8946 203.635H26.7181C27.0841 203.635 27.4501 204.002 27.4501 204.37C27.4501 204.921 27.0841 205.196 26.6266 205.196Z" fill="#53241B"/>
<path d="M40.6797 189.393C40.716 188.634 40.1318 187.988 39.3747 187.952C38.6176 187.915 37.9743 188.502 37.938 189.261C37.9016 190.021 38.4858 190.666 39.2429 190.703C40 190.739 40.6433 190.153 40.6797 189.393Z" fill="#FFB70A"/>
<path d="M32.0976 189.786C32.134 189.026 31.5498 188.381 30.7927 188.344C30.0356 188.308 29.3923 188.894 29.3559 189.654C29.3195 190.413 29.9038 191.059 30.6609 191.095C31.418 191.132 32.0612 190.546 32.0976 189.786Z" fill="#FFB70A"/>
<path d="M29.2802 189.497L27.0842 185.64C26.6267 184.722 26.5352 183.712 26.9927 182.794L29.0057 178.204C29.2802 177.653 29.9207 177.378 30.4697 177.653C31.0187 177.928 31.2932 178.571 31.0187 179.122L29.0057 183.804C28.9142 184.08 28.9142 184.355 29.0057 184.631L31.1102 188.395L29.2802 189.497Z" fill="#F6641E"/>
<path d="M33.2777 189.511L32.0474 188.152L29.3382 190.621L30.5685 191.98L33.2777 189.511Z" fill="#F97D00"/>
<path d="M32.3679 188.557L31.9988 188.149L29.2896 190.618L29.6587 191.026L32.3679 188.557Z" fill="#F6641E"/>
<path d="M35.685 168.196C34.3125 168.931 33.0315 168.38 32.2995 169.023C31.2015 169.941 31.476 171.41 30.927 171.961C30.012 172.787 28.4565 172.879 27.9075 172.879C28.0905 171.41 27.999 169.941 28.365 168.472C28.914 166.268 30.012 163.881 33.123 163.881C35.685 163.881 36.966 165.718 36.966 165.718C36.966 165.718 36.783 167.646 35.685 168.196Z" fill="#53241B"/>
</svg>
